<svg version="1" xmlns="http://www.w3.org/2000/svg" width="666.667" height="666.667" viewBox="0 0 500.000000 500.000000"><path d="M256.3 88.8c-1.4.2-2.4 1.2-2.8 3-.8 4.1-1.5 7.4-2.1 10-.3 1.3-1.8 8.1-3.5 15-3.8 16-3.5 14.5-5.3 22.7-.8 3.8-2.9 12.4-4.5 19s-3.2 13.3-3.5 15c-.3 1.6-1.5 7-2.6 12-4.4 18.3-10.2 43.1-10.5 44.8-.2 1-.6 2.6-.9 3.5-.3.9-.7 2.8-1 4.2-.6 3.3-9.3 40.9-11.1 48-.8 3-1.6 6.6-1.9 8-.2 1.4-2.3 10.4-4.6 20s-4.3 18.6-4.6 20c-.3 1.4-.7 3.3-1 4.2-.3 1-.7 2.9-1 4.3-.4 2.1-3.7 16.4-5 21.5-.2.8-1.1 4.6-2 8.5-.8 3.8-1.7 7.7-1.9 8.5-.2.8-1.3 5.8-2.5 11-2.7 12-2.7 11.9-3.9 15.7l-1 3.3 4.7.1h59.8c1.8-.1 2.4-1.7 5.4-14.4 1.9-7.8 3.5-14.9 3.7-15.7.1-.8 1.4-6.5 2.8-12.5 1.5-6.1 2.8-11.8 3-12.8.9-4.1 7.7-32.9 8-34 .3-.7.7-2.3.9-3.7.3-1.4.7-3.4 1-4.5 3.5-14.9 4.6-19.5 5-21.5.3-1.4.7-3.4 1-4.5 2-8.9 2.8-12.3 3.2-14 .2-1.1 1.3-5.8 2.5-10.5 1.1-4.7 2.3-9.6 2.5-11 .3-1.4.7-3.1 1-3.9.4-1.3 3.9-16.3 5-22 .3-1.4 1.8-7.9 3.4-14.5 5-20.8 6.9-29 7.4-31.6.2-1.4 1.6-7.2 3-13 1.3-5.8 2.7-11.6 2.9-13 .3-1.4 1.4-6.3 2.6-11 1.1-4.7 3.3-14.1 5-21 1.6-6.9 3.9-16.9 5.2-22.2 1.2-5.4 2-10.1 1.6-10.4-.7-.7-59-1.2-63.4-.6zM144.5 154.9c-10.2 6.6-31.4 20.4-45.5 29.6-5.2 3.4-11.5 7.5-13.9 9.1-2.4 1.6-5.1 3.3-6 3.9-.9.5-7.9 5-15.4 9.9l-13.7 9V282.7l17.5 11.4c9.6 6.3 28.5 18.6 42 27.4 29.9 19.6 42.7 27.9 43.7 28.3.5.2.8-14.5.8-32.6v-33l-15.2-10c-8.4-5.4-18-11.7-21.2-13.8-3.2-2.2-7.4-4.8-9.1-5.9-8.5-5.3-8.9-4.2 4-12.5 6.3-4.1 18.3-11.9 26.5-17.3l15-9.8v-33c0-18.1-.1-32.9-.3-32.9-.1 0-4.3 2.6-9.2 5.9zM346 181.9v33l8.3 5.4c4.5 3 10.2 6.7 12.6 8.3 2.4 1.6 5.1 3.3 5.9 3.9 6.7 4.3 25.8 16.8 26 17 .1.1-4.1 3.1-9.5 6.5-5.4 3.5-17.3 11.3-26.5 17.3L346 284.2v32.9c0 18.1.2 32.9.4 32.9.3 0 3.1-1.7 6.3-3.8 5.3-3.6 16.7-11 38.3-25 7.6-4.9 35.6-23.3 52.8-34.5l6.2-4.1v-66.2l-23.7-15.5c-22.8-14.8-33.8-21.9-60.5-39.4-6.7-4.4-13.9-9-16-10.3l-3.8-2.3v33z"/></svg>