<?xml version="1.0" standalone="no"?>
<!DOCTYPE svg PUBLIC "-//W3C//DTD SVG 20010904//EN"
 "http://www.w3.org/TR/2001/REC-SVG-20010904/DTD/svg10.dtd">
<svg version="1.0" xmlns="http://www.w3.org/2000/svg"
 width="500.000000pt" height="500.000000pt" viewBox="0 0 500.000000 500.000000"
 preserveAspectRatio="xMidYMid meet">
<metadata>
Created by potrace 1.11, written by Peter Selinger 2001-2013
</metadata>
<g transform="translate(0.000000,500.000000) scale(0.100000,-0.100000)"
fill="#000000" stroke="none">
<path d="M2563 4112 c-14 -2 -24 -12 -28 -30 -8 -41 -15 -74 -21 -100 -3 -13
-18 -81 -35 -150 -38 -160 -35 -145 -53 -227 -8 -38 -29 -124 -45 -190 -16
-66 -32 -133 -35 -150 -3 -16 -15 -70 -26 -120 -44 -183 -102 -431 -105 -448
-2 -10 -6 -26 -9 -35 -3 -9 -7 -28 -10 -42 -6 -33 -93 -409 -111 -480 -8 -30
-16 -66 -19 -80 -2 -14 -23 -104 -46 -200 -23 -96 -43 -186 -46 -200 -3 -14
-7 -33 -10 -42 -3 -10 -7 -29 -10 -43 -4 -21 -37 -164 -50 -215 -2 -8 -11 -46
-20 -85 -8 -38 -17 -77 -19 -85 -2 -8 -13 -58 -25 -110 -27 -120 -27 -119 -39
-157 l-10 -33 47 -1 c66 0 573 0 598 0 18 1 24 17 54 144 19 78 35 149 37 157
1 8 14 65 28 125 15 61 28 118 30 128 9 41 77 329 80 340 3 7 7 23 9 37 3 14
7 34 10 45 35 149 46 195 50 215 3 14 7 34 10 45 20 89 28 123 32 140 2 11 13
58 25 105 11 47 23 96 25 110 3 14 7 31 10 39 4 13 39 163 50 220 3 14 18 79
34 145 50 208 69 290 74 316 2 14 16 72 30 130 13 58 27 116 29 130 3 14 14
63 26 110 11 47 33 141 50 210 16 69 39 169 52 222 12 54 20 101 16 104 -7 7
-590 12 -634 6z"/>
<path d="M1445 3451 c-102 -66 -314 -204 -455 -296 -52 -34 -115 -75 -139 -91
-24 -16 -51 -33 -60 -39 -9 -5 -79 -50 -154 -99 l-137 -90 0 -331 0 -332 175
-114 c96 -63 285 -186 420 -274 299 -196 427 -279 437 -283 5 -2 8 145 8 326
l0 330 -152 100 c-84 54 -180 117 -212 138 -32 22 -74 48 -91 59 -85 53 -89
42 40 125 63 41 183 119 265 173 l150 98 0 330 c0 181 -1 329 -3 329 -1 0 -43
-26 -92 -59z"/>
<path d="M3460 3181 l0 -330 83 -54 c45 -30 102 -67 126 -83 24 -16 51 -33 59
-39 67 -43 258 -168 260 -170 1 -1 -41 -31 -95 -65 -54 -35 -173 -113 -265
-173 l-168 -109 0 -329 c0 -181 2 -329 4 -329 3 0 31 17 63 38 53 36 167 110
383 250 76 49 356 233 528 345 l62 41 0 331 0 331 -237 155 c-228 148 -338
219 -605 394 -67 44 -139 90 -160 103 l-38 23 0 -330z"/>
</g>
</svg>
